<?xml version="1.0" encoding="UTF-8" standalone="no"?>
<svg width="1487px" height="424px" viewBox="0 0 1487 424" version="1.1" xmlns="http://www.w3.org/2000/svg" xmlns:xlink="http://www.w3.org/1999/xlink" xmlns:sketch="http://www.bohemiancoding.com/sketch/ns">
    <!-- Generator: Sketch 3.1.1 (8761) - http://www.bohemiancoding.com/sketch -->
   
    <title>Front 2</title>
    <desc>Created with Sketch.</desc>
    <defs>
        <linearGradient x1="5.20417043e-15%" y1="0%" x2="83.6208149%" y2="87.6832218%" id="linearGradient-1">
            <stop stop-color="#FBDA61" offset="0%"></stop>
            <stop stop-color="#000000" offset="100%"></stop>
        </linearGradient>
    </defs>
    <g id="Page-1" stroke="none" stroke-width="1" fill="none" fill-rule="evenodd" sketch:type="MSPage">
        <g id="Front-2" sketch:type="MSLayerGroup" transform="translate(-168.000000, -357.000000)">
            <g id="Group-2-+-Group-3-+-BROOKLYN-2" transform="translate(159.000000, 491.000000)" font-weight="bold" font-family="Josefin Sans" letter-spacing="108.449997" sketch:type="MSTextLayer" font-size="176" fill="#000000">
                <text id="BROOKLYN" transform="translate(757.000000, 111.500000) scale(1, -1) translate(-757.000000, -111.500000) ">
                    <tspan x="0" y="173">B</tspan>
                    <tspan x="202.609997" y="173" letter-spacing="74.5">R</tspan>
                    <tspan x="368.453997" y="173" letter-spacing="51.5">O</tspan>
                    <tspan x="567.793997" y="173" letter-spacing="90.5">O</tspan>
                    <tspan x="806.133997" y="173" letter-spacing="79">K</tspan>
                    <tspan x="990.733997" y="173" letter-spacing="90">L</tspan>
                    <tspan x="1185.102" y="173" letter-spacing="73.5">Y</tspan>
                    <tspan x="1370.89" y="173">N</tspan>
                </text>
            </g>
            <g id="Group-2" transform="translate(575.558025, 356.000000)" fill="url(#linearGradient-1)" sketch:type="MSShapeGroup">
                <path d="M132.38886,202.667558 C134.912126,204.206782 137.435391,205.746005 139.958656,207.285229 C136.708361,209.539154 132.629874,211.060403 126.737005,211.189911 C123.824756,211.253799 121.156811,210.452777 118.545487,208.916041 C114.057782,206.274159 114.312175,205.070869 119.468796,204.782927 C123.88116,204.537967 128.184951,203.760067 132.38886,202.667558 L132.38886,202.667558 Z M174.62723,175.606346 C175.791334,174.361063 174.96929,173.025938 172.829288,172.602445 C158.772798,169.822135 153.769736,156.937069 157.896176,142.746631 C164.033697,121.642971 155.800548,107.038453 133.247141,90.456392 C98.759938,65.0960599 60.8140432,42.0171987 30.8745891,17.2318129 C28.0268955,14.8750423 25.2633477,16.1858747 25.1258425,21.2792868 C24.5158155,43.9865319 43.5520481,56.9041802 64.0650315,70.7689668 C83.0138134,83.5755256 101.763625,95.7848345 119.563989,108.459208 C133.099,118.094069 143.139598,130.99331 137.764867,148.062677 C133.560715,161.40833 136.157049,176.248981 154.611064,186.636772 C157.440507,188.229144 160.520826,188.80769 163.529265,186.385042 C167.54442,183.152249 171.106707,179.374386 174.62723,175.606346 L174.62723,175.606346 Z M28.3822382,52.3034969 C24.1279905,49.3697793 21.5735935,50.4183741 22.2979596,55.6651809 C22.8835699,59.9228796 24.2938491,62.4896516 25.7815652,66.5143196 C27.3770988,70.8315153 32.1831202,74.6849499 35.5366593,77.0574354 C67.5765171,99.7176517 98.1092684,118.349277 129.803737,138.357002 C132.151107,139.838304 136.240226,140.657499 134.577733,134.730897 C132.363482,126.83015 126.441994,119.440877 116.83268,112.700332 C87.6094499,92.1923028 57.7782687,72.5622375 28.3822382,52.3034969 L28.3822382,52.3034969 Z M131.362132,153.990258 C131.193808,148.288804 127.861272,143.162669 120.777471,138.549252 C91.4980439,119.468021 61.837789,100.954717 32.9858338,81.2331062 C26.2502318,76.6292267 26.9422188,79.5690902 27.3574573,83.3842177 C28.5083726,94.0185817 35.2286369,99.2074843 44.0053014,104.781308 C71.0107201,121.929098 97.7746894,139.465916 124.334959,157.297208 C129.328641,160.650566 131.553439,160.514594 131.362132,153.990258 L131.362132,153.990258 Z M150.998733,193.028493 C143.033762,188.211756 135.744764,182.120009 131.989896,171.494823 C131.057398,168.854844 129.610032,166.19394 125.100284,163.590236 C119.919218,160.598946 114.897104,157.340676 109.775572,154.250438 C104.936775,151.333134 103.902132,155.363185 105.245739,159.983369 C110.357828,177.551513 123.822635,190.721231 139.410921,202.542659 C141.226186,203.920366 143.252293,203.999343 145.392326,202.31398 C147.574546,200.597222 149.769823,198.866187 151.702986,196.872316 C153.196874,195.33506 152.687766,194.049713 150.998733,193.028493 L150.998733,193.028493 Z M100.571745,162.698257 C98.7814398,157.77654 98.1716312,152.923112 100.158613,148.218777 C82.2759024,136.257994 64.239505,124.45088 45.9845813,112.030376 C41.1110172,108.714856 41.079315,111.445361 42.2902973,115.053313 C46.0970414,126.413831 56.5216091,135.889072 70.6539459,144.443491 C80.6481395,150.4924 90.5985437,156.612988 100.571745,162.698257 L100.571745,162.698257 Z M102.879909,167.774049 C104.711256,171.286883 107.018156,174.747038 109.620148,178.050326 C101.206942,176.698052 92.2734453,172.471109 83.0932523,169.117388 C76.1094474,166.56877 68.6610973,162.799318 64.0452433,152.719359 C61.9705094,148.186097 63.9533583,147.214749 68.2129266,149.722492 C79.4276143,156.333039 91.1915478,161.988096 102.879909,167.774049 L102.879909,167.774049 Z M112.033051,182.455456 C114.188491,185.336095 116.48458,187.973122 118.923418,190.362903 C114.222498,190.349154 109.329903,190.275644 103.167627,189.367277 C96.8597112,188.440272 90.7723243,186.506161 86.2317997,181.555231 C83.3407193,178.402581 82.3043067,174.992376 89.1787647,176.871865 C96.8731091,178.977467 104.374231,181.226032 112.033051,182.455456 L112.033051,182.455456 Z M122.293956,194.325221 C124.402897,196.444545 126.652782,198.315579 129.044366,199.941183 C124.29686,200.637431 119.143868,201.535891 113.430336,201.238085 C109.911717,201.056116 106.671743,199.71637 103.775271,198.119235 C97.365774,194.58839 96.8079932,192.249593 102.032566,192.694145 C109.241133,193.307287 115.842096,194.2435 122.293956,194.325221 L122.293956,194.325221 Z" id="Fill-1412" transform="translate(98.682156, 113.535030) scale(-1, 1) rotate(-345.000000) translate(-98.682156, -113.535030) "></path>
            </g>
            <g id="Group-2" transform="translate(556.000000, 685.000000) scale(-1, 1) rotate(-255.000000) translate(-556.000000, -685.000000) translate(457.500000, 500.000000)" fill="url(#linearGradient-1)" sketch:type="MSShapeGroup">
                <path d="M132.380549,202.124137 C134.903911,203.663194 137.427272,205.202251 139.950634,206.741308 C136.70516,208.986883 132.631196,210.500297 126.742449,210.622665 C123.832238,210.683024 121.165155,209.880509 118.553798,208.343831 C114.066033,205.702052 114.318849,204.501491 119.47166,204.22015 C123.880765,203.980835 128.180747,203.209531 132.380549,202.124137 L132.380549,202.124137 Z M174.658098,175.27297 C175.819964,174.031563 174.996916,172.698178 172.857862,172.273043 C158.807599,169.481948 153.792869,156.61709 157.899966,142.460156 C164.00872,121.406321 155.764073,106.821718 133.206511,90.2468556 C98.7129475,64.8975391 60.7656862,41.8210448 30.8174787,17.0508204 C27.9689533,14.6954905 25.2087976,16.0004474 25.0773299,21.0834025 C24.4942168,43.7440314 43.5326985,56.657784 64.0480415,70.5184838 C82.9990019,83.3212694 101.750429,95.5277803 119.55359,108.197307 C133.090726,117.828488 143.139614,130.713372 137.788428,147.741958 C133.602685,161.055726 136.21459,175.869406 154.668295,186.257736 C157.497689,187.850191 160.576608,188.431163 163.580191,186.016923 C167.588868,182.795352 171.144345,179.029284 174.658098,175.27297 L174.658098,175.27297 Z M28.3662205,52.0749802 C24.1114155,49.142228 21.5599636,50.1857216 22.2899654,55.4227671 C22.8801505,59.6725421 24.2924752,62.2357712 25.7838862,66.2540394 C27.3833834,70.5643699 32.1906638,74.4156239 35.5447122,76.7872273 C67.5894276,99.4390299 98.1233502,118.068626 129.819813,138.072897 C132.167331,139.553944 136.254651,140.376255 134.586361,134.459694 C132.36438,126.572334 126.438258,119.191088 116.827552,112.452954 C87.6000779,91.9522755 57.7660874,72.327076 28.3662205,52.0749802 L28.3662205,52.0749802 Z M131.36717,153.659889 C131.192305,147.969765 127.856032,142.850104 120.77162,138.237745 C91.4896524,119.160915 61.8277763,100.650419 32.9722451,80.9350014 C26.2358085,76.3325675 26.9307605,79.2672955 27.3501719,83.0751951 C28.5127236,93.6894043 35.2345157,98.8756608 44.0117714,104.448461 C71.0190065,121.593104 97.7854089,139.125709 124.348592,156.951953 C129.342823,160.30436 131.565964,160.17126 131.36717,153.659889 L131.36717,153.659889 Z M150.997985,192.54619 C143.03276,187.729893 135.741564,181.641953 131.976824,171.033865 C131.041874,168.398134 129.592377,165.74092 125.08263,163.137216 C119.901563,160.145926 114.879031,156.888381 109.757343,153.798413 C104.918402,150.881359 103.88916,154.902055 105.237253,159.514468 C110.366403,177.053062 123.837507,190.211872 139.429086,202.027597 C141.244736,203.404638 143.26957,203.48582 145.406194,201.806362 C147.58494,200.095621 149.776717,198.370647 151.706251,196.383064 C153.197338,194.850659 152.687072,193.567316 150.997985,192.54619 L150.997985,192.54619 Z M100.582956,162.311421 C98.7881132,157.397563 98.1730509,152.553235 100.153203,147.86073 C82.2685828,135.903254 64.2305586,124.098957 45.9734395,111.682256 C41.0992897,108.36775 41.0707958,111.092698 42.2851731,114.69477 C46.1026115,126.036765 56.5312135,135.505018 70.6640115,144.058639 C80.6585305,150.106985 90.6093732,156.226813 100.582956,162.311421 L100.582956,162.311421 Z M102.871928,167.34381 C104.706141,170.851679 107.015526,174.307532 109.61962,177.607179 C101.210504,176.24782 92.2780941,172.018995 83.100173,168.661339 C76.1180995,166.109722 68.670369,162.339197 64.0458606,152.274228 C61.9672337,147.747708 63.9476128,146.780639 68.2072377,149.288283 C79.4220838,155.898556 91.1846904,161.555911 102.871928,167.34381 L102.871928,167.34381 Z M112.024225,181.975071 C114.181574,184.852402 116.479194,187.486779 118.919177,189.874575 C114.221409,189.855367 109.332025,189.776296 103.172841,188.862573 C96.8680942,187.930079 90.7825519,185.992773 86.2393085,181.046552 C83.3464967,177.896902 82.3068023,174.492381 89.1788215,176.376093 C96.8704386,178.48642 104.36913,180.739194 112.024225,181.975071 L112.024225,181.975071 Z M122.285496,193.809782 C124.39549,195.927282 126.646043,197.797159 129.037912,199.422269 C124.294418,200.111569 119.145947,201.002197 113.435918,200.698325 C109.919457,200.512617 106.680103,199.171798 103.783719,197.574512 C97.3744197,194.043323 96.8142851,191.708603 102.035856,192.158354 C109.240281,192.778671 115.837889,193.720695 122.285496,193.809782 L122.285496,193.809782 Z" id="Fill-1412" transform="translate(98.682156, 113.229005) scale(-1, 1) rotate(-345.000000) translate(-98.682156, -113.229005) "></path>
            </g>
        </g>
    </g>
</svg>