<?xml version="1.0" encoding="UTF-8" standalone="no"?>
<svg width="1635px" height="1043px" viewBox="0 0 1635 1043" version="1.1" xmlns="http://www.w3.org/2000/svg" xmlns:xlink="http://www.w3.org/1999/xlink" xmlns:sketch="http://www.bohemiancoding.com/sketch/ns">
    <!-- Generator: Sketch 3.1.1 (8761) - http://www.bohemiancoding.com/sketch -->
    <title>Back</title>
    <desc>Created with Sketch.</desc>
    <defs>
        <linearGradient x1="5.20417043e-15%" y1="0%" x2="83.6208149%" y2="87.6832218%" id="linearGradient-1">
            <stop stop-color="#FBDA61" offset="0%"></stop>
            <stop stop-color="#000000" offset="100%"></stop>
        </linearGradient>
        <filter x="-50%" y="-50%" width="200%" height="200%" filterUnits="objectBoundingBox" id="filter-2">
            <feOffset dx="2" dy="2" in="SourceAlpha" result="shadowOffsetOuter1"></feOffset>
            <feGaussianBlur stdDeviation="2" in="shadowOffsetOuter1" result="shadowBlurOuter1"></feGaussianBlur>
            <feColorMatrix values="0 0 0 0 0.981171191   0 0 0 0 0.852250814   0 0 0 0 0.381363332  0 0 0 0.350713315 0" in="shadowBlurOuter1" type="matrix" result="shadowMatrixOuter1"></feColorMatrix>
            <feMerge>
                <feMergeNode in="shadowMatrixOuter1"></feMergeNode>
                <feMergeNode in="SourceGraphic"></feMergeNode>
            </feMerge>
        </filter>
    </defs>
    <g id="Page-1" stroke="none" stroke-width="1" fill="none" fill-rule="evenodd" sketch:type="MSPage">
        <g id="Back" sketch:type="MSLayerGroup" transform="translate(-60.000000, -72.000000)">
            <rect id="Rectangle-1" sketch:type="MSShapeGroup" x="0" y="0" width="1800" height="1200"></rect>
            <g id="Group-2-+-Group-3-+-BROOKLYN-2-+-Group-3-+-Group-4" transform="translate(605.000000, 1071.000000)">
                <text id="BROOKLYNAIRSPACE.COM" sketch:type="MSTextLayer" font-family="Josefin Sans" font-size="18" font-weight="260" letter-spacing="21.7999992" fill="#000000">
                    <tspan x="0" y="26">B</tspan>
                    <tspan x="31.4299992" y="26" letter-spacing="17.3999996">R</tspan>
                    <tspan x="57.8479989" y="26" letter-spacing="15">O</tspan>
                    <tspan x="87.9679989" y="26" letter-spacing="17.5">O</tspan>
                    <tspan x="120.587999" y="26" letter-spacing="19">K</tspan>
                    <tspan x="150.387999" y="26" letter-spacing="19.5">L</tspan>
                    <tspan x="180.561999" y="26" letter-spacing="16.6000004">Y</tspan>
                    <tspan x="208.645999" y="26" letter-spacing="16.3999996">N</tspan>
                    <tspan x="239.679999" y="26" letter-spacing="20.7999992">A</tspan>
                    <tspan x="273.799998" y="26" letter-spacing="22.8999996">I</tspan>
                    <tspan x="300.983998" y="26" letter-spacing="20">R</tspan>
                    <tspan x="330.001998" y="26" letter-spacing="21.5">S</tspan>
                    <tspan x="361.365998" y="26" letter-spacing="19">P</tspan>
                    <tspan x="388.555998" y="26" letter-spacing="17.5">A</tspan>
                    <tspan x="419.375998" y="26" letter-spacing="18.5">C</tspan>
                    <tspan x="449.935998" y="26" letter-spacing="23.6000004">E</tspan>
                    <tspan x="484.353998" y="26" letter-spacing="31">.</tspan>
                    <tspan x="518.287998" y="26" letter-spacing="17.5">C</tspan>
                    <tspan x="547.847998" y="26" letter-spacing="15">O</tspan>
                    <tspan x="577.967998" y="26" letter-spacing="16.6000004">M</tspan>
                </text>
                <g id="Group-3" transform="translate(70.540318, 11.540011) scale(1, -1) rotate(-270.000000) translate(-70.540318, -11.540011) translate(61.071028, -6.468156)" fill="url(#linearGradient-1)" sketch:type="MSShapeGroup">
                    <path d="M12.7301044,19.6737782 C12.9726446,19.8218097 13.2151849,19.9698412 13.4577251,20.1178727 C13.1435696,20.3374785 12.7498999,20.4864682 12.1819455,20.5014193 C11.9012632,20.508797 11.6444782,20.4323144 11.3934507,20.2845598 C10.9620463,20.0305466 10.9870543,19.9139123 11.4841206,19.883919 C11.9094445,19.8583924 12.3245229,19.7812988 12.7301044,19.6737782 L12.7301044,19.6737782 Z M16.7769634,16.9986766 C16.8896583,16.8776038 16.810983,16.7486423 16.6049221,16.7085049 C15.2514213,16.4449979 14.774539,15.1992144 15.1780095,13.8232824 C15.778116,11.7770308 14.9906502,10.3660509 12.8239359,8.76941423 C9.51073894,6.32754202 5.86329183,4.10802839 2.98813077,1.71997649 C2.7146593,1.49290389 2.44779764,1.62097868 2.43246382,2.11429637 C2.36439164,4.31358422 4.19365059,5.55678595 6.16483824,6.89110769 C7.98571492,8.12358693 9.78766083,9.29830802 11.4979173,10.5184555 C12.7983604,11.4459912 13.760709,12.691088 13.2357626,14.3463345 C12.8251484,15.6404868 13.0692923,17.076639 14.8434767,18.0750797 C15.1155018,18.2281331 15.4121186,18.282902 15.7030352,18.0470554 C16.0913012,17.7323405 16.4361467,17.3650243 16.7769634,16.9986766 L16.7769634,16.9986766 Z M2.73413496,5.10823683 C2.3253484,4.82586597 2.07875002,4.92845937 2.14641285,5.4362799 C2.20110802,5.84836895 2.33596862,6.09636637 2.47769586,6.4855192 C2.62969399,6.90295723 3.0912795,7.27417069 3.41349337,7.50255837 C6.49194117,9.68394371 9.42679466,11.4758042 12.4730414,13.4004555 C12.6986541,13.5429496 13.0923916,13.6206112 12.9345984,13.0473407 C12.724439,12.2831136 12.1568004,11.5699349 11.2334972,10.9210886 C8.4256107,8.94697614 5.55877638,7.05813684 2.73413496,5.10823683 L2.73413496,5.10823683 Z M12.6267239,14.9195621 C12.6128332,14.3674849 12.2937692,13.8724169 11.6129826,13.4285356 C8.79909697,11.5926216 5.94827842,9.81186296 3.17585047,7.91375776 C2.52861622,7.47065779 2.59410178,7.75508018 2.63255899,8.12437894 C2.7391262,9.15377246 3.38464318,9.65353411 4.22818004,10.189732 C6.82370775,11.8393354 9.39580769,13.5267123 11.9481565,15.2426901 C12.4280314,15.5653979 12.642493,15.5513205 12.6267239,14.9195621 L12.6267239,14.9195621 Z M14.5165137,18.7257196 C13.750891,18.2625084 13.0509338,17.6755451 12.6934173,16.648105 C12.6046309,16.3928226 12.4662347,16.1357243 12.0326905,15.8854174 C11.534609,15.59785 11.0519552,15.2843624 10.5596515,14.9871882 C10.0945247,14.7066459 9.99316765,15.0973512 10.1207634,15.5442346 C10.6062381,17.2434969 11.8984703,18.5133875 13.3958955,19.6518376 C13.5702711,19.7845168 13.7654968,19.7913369 13.9724228,19.6272463 C14.1834273,19.4600981 14.3956959,19.2915619 14.5828119,19.0976791 C14.7274078,18.9481958 14.67887,18.8239271 14.5165137,18.7257196 L14.5165137,18.7257196 Z M9.66453011,15.7764847 C9.4940088,15.3005826 9.43722517,14.8308112 9.63063577,14.3744169 C7.91215163,13.2234093 6.17879373,12.0873462 4.42462702,10.8919701 C3.95631243,10.5728775 3.95214096,10.8373208 4.06736946,11.1862308 C4.42958459,12.2848615 5.43033647,13.1982107 6.78878608,14.0208689 C7.74946317,14.6025778 8.70589094,15.1912461 9.66453011,15.7764847 L9.66453011,15.7764847 Z M9.89314774,16.2796486 C10.0682003,16.6190933 10.2891039,16.9532421 10.5385099,17.2720787 C9.72827397,17.14456 8.86907239,16.7388623 7.98573946,16.4178309 C7.31374541,16.1738701 6.5974818,15.81187 6.15676847,14.8375833 C5.95867768,14.3994167 6.15016384,14.3045378 6.5596373,14.5456538 C7.63770497,15.1812543 8.76909462,15.7240978 9.89314774,16.2796486 L9.89314774,16.2796486 Z M10.7733808,17.7086091 C10.979925,17.9866977 11.2001232,18.2411368 11.4341793,18.4715733 C10.9811528,18.4721637 10.5096787,18.467045 9.91618564,18.3815953 C9.30866472,18.2944001 8.72280811,18.1095836 8.28725746,17.6319768 C8.00993015,17.3278466 7.91144426,16.9980158 8.57317399,17.1772206 C9.31382453,17.3779879 10.0357956,17.5926791 10.7733808,17.7086091 L10.7733808,17.7086091 Z M11.7596834,18.8619872 C11.9620577,19.0663667 12.1781163,19.2466435 12.407931,19.4030943 C11.9501246,19.4724619 11.4531585,19.5615781 10.9026617,19.5350735 C10.5636434,19.5188896 10.2519517,19.3904692 9.97346891,19.2369819 C9.35722301,18.8976645 9.3044253,18.6713964 9.80774066,18.7123122 C10.5021865,18.7687437 11.1379449,18.8567107 11.7596834,18.8619872 L11.7596834,18.8619872 Z" id="Fill-1412" transform="translate(9.486802, 11.021875) scale(-1, 1) rotate(-345.000000) translate(-9.486802, -11.021875) "></path>
                </g>
                <g id="Group-4" transform="translate(58.397623, 26.270469) rotate(-195.000000) translate(-58.397623, -26.270469) translate(47.897623, 10.770469)" fill="url(#linearGradient-1)" sketch:type="MSShapeGroup">
                    <path d="M16.5542408,18.196185 C16.796781,18.3442165 17.0393213,18.492248 17.2818615,18.6402795 C16.967706,18.8598853 16.5740363,19.008875 16.0060819,19.0238261 C15.7253996,19.0312038 15.4686146,18.9547212 15.2175871,18.8069666 C14.7861827,18.5529534 14.8111907,18.4363191 15.308257,18.4063258 C15.7335809,18.3807992 16.1486593,18.3037056 16.5542408,18.196185 L16.5542408,18.196185 Z M20.6010998,15.5210835 C20.7137947,15.4000106 20.6351194,15.2710491 20.4290585,15.2309117 C19.0755577,14.9674047 18.5986755,13.7216212 19.0021459,12.3456892 C19.6022524,10.2994376 18.8147866,8.88845767 16.6480723,7.29182104 C13.3348753,4.84994883 9.68742823,2.6304352 6.81226717,0.2423833 C6.53879571,0.0153106982 6.27193405,0.143385489 6.25660023,0.636703181 C6.18852804,2.83599103 8.017787,4.07919276 9.98897465,5.4135145 C11.8098513,6.64599374 13.6117972,7.82071483 15.3220537,9.04086234 C16.6224968,9.96839804 17.5848454,11.2134948 17.059899,12.8687413 C16.6492848,14.1628936 16.8934287,15.5990458 18.6676131,16.5974866 C18.9396382,16.7505399 19.236255,16.8053088 19.5271716,16.5694622 C19.9154376,16.2547473 20.2602831,15.8874312 20.6010998,15.5210835 L20.6010998,15.5210835 Z M6.55827137,3.63064365 C6.14948481,3.34827278 5.90288643,3.45086618 5.97054925,3.95868672 C6.02524442,4.37077576 6.16010503,4.61877318 6.30183227,5.00792601 C6.4538304,5.42536405 6.91541591,5.79657751 7.23762977,6.02496518 C10.3160776,8.20635052 13.2509311,9.99821102 16.2971778,11.9228623 C16.5227905,12.0653564 16.916528,12.143018 16.7587349,11.5697475 C16.5485754,10.8055205 15.9809368,10.0923417 15.0576336,9.44349545 C12.2497471,7.46938295 9.38291279,5.58054365 6.55827137,3.63064365 L6.55827137,3.63064365 Z M16.4508603,13.441969 C16.4369696,12.8898917 16.1179056,12.3948237 15.437119,11.9509424 C12.6232334,10.1150284 9.77241482,8.33426977 6.99998688,6.43616457 C6.35275262,5.99306461 6.41823819,6.27748699 6.45669539,6.64678575 C6.56326261,7.67617928 7.20877959,8.17594092 8.05231645,8.71213882 C10.6478442,10.3617422 13.2199441,12.0491191 15.7722929,13.7650969 C16.2521679,14.0878047 16.4666295,14.0737273 16.4508603,13.441969 L16.4508603,13.441969 Z M18.3406501,17.2481264 C17.5750275,16.7849152 16.8750702,16.1979519 16.5175538,15.1705118 C16.4287674,14.9152294 16.2903711,14.6581311 15.8568269,14.4078242 C15.3587454,14.1202568 14.8760916,13.8067692 14.3837879,13.509595 C13.9186611,13.2290527 13.8173041,13.6197581 13.9448998,14.0666414 C14.4303745,15.7659037 15.7226067,17.0357943 17.2200319,18.1742445 C17.3944075,18.3069237 17.5896332,18.3137437 17.7965592,18.1496531 C18.0075637,17.982505 18.2198323,17.8139687 18.4069483,17.620086 C18.5515442,17.4706026 18.5030064,17.3463339 18.3406501,17.2481264 L18.3406501,17.2481264 Z M13.4886665,14.2988915 C13.3181452,13.8229894 13.2613616,13.353218 13.4547722,12.8968237 C11.736288,11.7458161 10.0029301,10.609753 8.24876342,9.4143769 C7.78044883,9.09528432 7.77627737,9.35972763 7.89150587,9.7086376 C8.25372099,10.8072683 9.25447287,11.7206175 10.6129225,12.5432758 C11.5735996,13.1249846 12.5300273,13.7136529 13.4886665,14.2988915 L13.4886665,14.2988915 Z M13.7172841,14.8020554 C13.8923367,15.1415001 14.1132403,15.4756489 14.3626463,15.7944856 C13.5524104,15.6669669 12.6932088,15.2612691 11.8098759,14.9402377 C11.1378818,14.696277 10.4216182,14.3342768 9.98090487,13.3599901 C9.78281408,12.9218235 9.97430025,12.8269446 10.3837737,13.0680606 C11.4618414,13.7036611 12.593231,14.2465046 13.7172841,14.8020554 L13.7172841,14.8020554 Z M14.5975172,16.2310159 C14.8040614,16.5091045 15.0242596,16.7635436 15.2583157,16.9939801 C14.8052892,16.9945705 14.3338151,16.9894518 13.740322,16.9040021 C13.1328011,16.816807 12.5469445,16.6319904 12.1113939,16.1543836 C11.8340666,15.8502534 11.7355807,15.5204226 12.3973104,15.6996275 C13.1379609,15.9003948 13.859932,16.1150859 14.5975172,16.2310159 L14.5975172,16.2310159 Z M15.5838198,17.384394 C15.7861941,17.5887735 16.0022527,17.7690503 16.2320674,17.9255011 C15.774261,17.9948687 15.2772949,18.0839849 14.7267981,18.0574803 C14.3877798,18.0412964 14.0760881,17.912876 13.7976053,17.7593888 C13.1813594,17.4200713 13.1285617,17.1938032 13.6318771,17.234719 C14.3263229,17.2911505 14.9620813,17.3791176 15.5838198,17.384394 L15.5838198,17.384394 Z" id="Fill-1412" transform="translate(13.310938, 9.544282) scale(-1, 1) translate(-13.310938, -9.544282) "></path>
                </g>
            </g>
            <g id="Group-2-+-Group-3-+-BROOKLYN-2-+-Group-3-+-Group-4" transform="translate(1458.000000, 70.000000)">
                <text id="@" sketch:type="MSTextLayer" font-family="Josefin Sans" font-size="18" font-weight="bold" letter-spacing="12" fill="#000000">
                    <tspan x="14" y="34">@</tspan>
                </text>
                <text id="BKAIRSPACE" sketch:type="MSTextLayer" font-family="Josefin Sans" font-size="15" font-style="italic" font-weight="526" letter-spacing="11.5" fill="#000000">
                    <tspan x="48" y="36">B</tspan>
                    <tspan x="67.525" y="36" font-size="16" letter-spacing="10">K</tspan>
                    <tspan x="87.125" y="36" letter-spacing="12.6300001">A</tspan>
                    <tspan x="110.855" y="36" letter-spacing="14">I</tspan>
                    <tspan x="128.8" y="36">R</tspan>
                    <tspan x="147.98" y="36" letter-spacing="12.6300001">S</tspan>
                    <tspan x="168.965" y="36">P</tspan>
                    <tspan x="187.605" y="36" letter-spacing="8.5">A</tspan>
                    <tspan x="207.205" y="36" letter-spacing="10.75">C</tspan>
                    <tspan x="228.005" y="36" letter-spacing="12.6300001">E</tspan>
                </text>
                <g id="Group-3" transform="translate(19.071028, 2.531844)" fill="url(#linearGradient-1)" sketch:type="MSShapeGroup">
                    <path d="M14.0744607,21.7514177 C14.3426143,21.915082 14.6107678,22.0787463 14.8789214,22.2424106 C14.5315897,22.4852077 14.0963467,22.6499314 13.4684137,22.6664614 C13.1580901,22.6746182 12.8741875,22.5900587 12.5966504,22.4267005 C12.1196877,22.1458624 12.1473366,22.016911 12.6968954,21.9837503 C13.1671354,21.955528 13.626048,21.8702929 14.0744607,21.7514177 L14.0744607,21.7514177 Z M18.5486862,18.7938134 C18.6732822,18.6599547 18.5862984,18.5173743 18.3584765,18.4729981 C16.86204,18.1816636 16.3347968,16.8043198 16.7808756,15.2830832 C17.444356,13.0207382 16.5737303,11.4607525 14.1782012,9.69550382 C10.5151158,6.99575892 6.48248182,4.54185466 3.30369082,1.90161374 C3.00133953,1.65056125 2.70629608,1.79216132 2.68934294,2.33757557 C2.61408203,4.76911811 4.63651896,6.14360754 6.81587289,7.61883965 C8.82904233,8.98147425 10.8212818,10.2802512 12.7121491,11.6292517 C14.1499248,12.6547394 15.2139018,14.031324 14.6335187,15.861372 C14.1795417,17.2921926 14.4494684,18.8800089 16.4110146,19.9838895 C16.7117668,20.1531059 17.0397076,20.2136587 17.3613463,19.9529056 C17.790615,19.6049554 18.1718777,19.198849 18.5486862,18.7938134 L18.5486862,18.7938134 Z M3.02287191,5.64768962 C2.57091566,5.33549912 2.29827537,5.44892685 2.3730837,6.01037551 C2.43355493,6.46598301 2.58265741,6.74017007 2.73935169,7.1704192 C2.9074015,7.63194057 3.41773252,8.04235584 3.77397362,8.29486228 C7.17751936,10.7066117 10.4223066,12.6877008 13.7902507,14.8156038 C14.0396891,14.973146 14.475007,15.059009 14.3005502,14.4251986 C14.0681969,13.5802657 13.4406132,12.7917721 12.4198051,12.0744047 C9.31539309,9.89181706 6.14580817,7.80350784 3.02287191,5.64768962 L3.02287191,5.64768962 Z M13.9601627,16.495135 C13.9448051,15.884756 13.5920466,15.3374065 12.8393658,14.8466494 C9.72832119,12.8168546 6.57644337,10.8480398 3.51123456,8.74948617 C2.79564946,8.25959286 2.8680506,8.57405153 2.91056906,8.98234989 C3.02839025,10.120452 3.74207673,10.6729907 4.67469488,11.2658135 C7.54432198,13.0896225 10.3880472,14.955194 13.2099355,16.8523867 C13.7404875,17.209174 13.9775972,17.1936099 13.9601627,16.495135 L13.9601627,16.495135 Z M16.0495229,20.7032398 C15.203047,20.1911114 14.4291711,19.5421621 14.0338993,18.4062197 C13.9357367,18.1239784 13.7827252,17.8397294 13.3033967,17.5629889 C12.7527156,17.2450531 12.2190914,16.8984598 11.6747982,16.5699027 C11.160552,16.2597338 11.0484911,16.6916994 11.1895615,17.1857757 C11.7263045,19.0644877 13.1550023,20.4684845 14.8105623,21.7271601 C15.0033528,21.8738508 15.2191951,21.8813911 15.4479735,21.6999718 C15.681261,21.515172 15.9159461,21.3288376 16.1228224,21.11448 C16.2826883,20.9492105 16.2290247,20.8118184 16.0495229,20.7032398 L16.0495229,20.7032398 Z M10.685148,17.4425525 C10.4966188,16.9163929 10.4338386,16.3970116 10.6476742,15.89242 C8.74771043,14.6198608 6.83130214,13.3638244 4.89188753,12.0422111 C4.37411681,11.6894209 4.36950482,11.9817906 4.49690197,12.3675471 C4.89736864,13.5821981 6.00380442,14.5920011 7.50571243,15.5015358 C8.56784134,16.1446757 9.62527218,16.79551 10.685148,17.4425525 L10.685148,17.4425525 Z M10.9379086,17.9988527 C11.1314475,18.3741443 11.3756796,18.7435808 11.651424,19.096088 C10.7556235,18.9551027 9.80568633,18.5065614 8.82906947,18.1516277 C8.08610982,17.8819036 7.29420556,17.4816746 6.80695091,16.4044989 C6.58794084,15.9200598 6.79964881,15.8151613 7.2523645,16.0817402 C8.44428097,16.784463 9.69515045,17.3846333 10.9379086,17.9988527 L10.9379086,17.9988527 Z M11.9110983,19.5787179 C12.1394545,19.8861739 12.3829066,20.1674829 12.6416801,20.4222545 C12.1408119,20.4229073 11.619548,20.417248 10.9633794,20.3227744 C10.2917016,20.2263711 9.64397588,20.0220371 9.16242913,19.4939929 C8.85581481,19.1577452 8.74692835,18.7930827 9.47853973,18.9912124 C10.2974063,19.2131816 11.0956207,19.4505452 11.9110983,19.5787179 L11.9110983,19.5787179 Z M13.0015589,20.8538979 C13.2253048,21.0798608 13.4641802,21.2791756 13.7182643,21.4521483 C13.2121115,21.5288415 12.6626636,21.6273688 12.0540318,21.5980652 C11.6792117,21.5801721 11.3346039,21.4381899 11.0267121,21.2684938 C10.3453878,20.8933429 10.2870145,20.6431798 10.8434822,20.6884165 C11.6112646,20.7508075 12.314162,20.8480642 13.0015589,20.8538979 L13.0015589,20.8538979 Z" id="Fill-1412" transform="translate(10.488651, 12.185834) scale(-1, 1) rotate(-345.000000) translate(-10.488651, -12.185834) "></path>
                </g>
                <g id="Group-4" transform="translate(16.430552, 38.577146) scale(1, -1) rotate(-90.000000) translate(-16.430552, -38.577146) translate(6.141804, 22.415971)" fill="url(#linearGradient-1)" sketch:type="MSShapeGroup">
                    <path d="M16.5542408,18.196185 C16.796781,18.3442165 17.0393213,18.492248 17.2818615,18.6402795 C16.967706,18.8598853 16.5740363,19.008875 16.0060819,19.0238261 C15.7253996,19.0312038 15.4686146,18.9547212 15.2175871,18.8069666 C14.7861827,18.5529534 14.8111907,18.4363191 15.308257,18.4063258 C15.7335809,18.3807992 16.1486593,18.3037056 16.5542408,18.196185 L16.5542408,18.196185 Z M20.6010998,15.5210835 C20.7137947,15.4000106 20.6351194,15.2710491 20.4290585,15.2309117 C19.0755577,14.9674047 18.5986755,13.7216212 19.0021459,12.3456892 C19.6022524,10.2994376 18.8147866,8.88845767 16.6480723,7.29182104 C13.3348753,4.84994883 9.68742823,2.6304352 6.81226717,0.2423833 C6.53879571,0.0153106982 6.27193405,0.143385489 6.25660023,0.636703181 C6.18852804,2.83599103 8.017787,4.07919276 9.98897465,5.4135145 C11.8098513,6.64599374 13.6117972,7.82071483 15.3220537,9.04086234 C16.6224968,9.96839804 17.5848454,11.2134948 17.059899,12.8687413 C16.6492848,14.1628936 16.8934287,15.5990458 18.6676131,16.5974866 C18.9396382,16.7505399 19.236255,16.8053088 19.5271716,16.5694622 C19.9154376,16.2547473 20.2602831,15.8874312 20.6010998,15.5210835 L20.6010998,15.5210835 Z M6.55827137,3.63064365 C6.14948481,3.34827278 5.90288643,3.45086618 5.97054925,3.95868672 C6.02524442,4.37077576 6.16010503,4.61877318 6.30183227,5.00792601 C6.4538304,5.42536405 6.91541591,5.79657751 7.23762977,6.02496518 C10.3160776,8.20635052 13.2509311,9.99821102 16.2971778,11.9228623 C16.5227905,12.0653564 16.916528,12.143018 16.7587349,11.5697475 C16.5485754,10.8055205 15.9809368,10.0923417 15.0576336,9.44349545 C12.2497471,7.46938295 9.38291279,5.58054365 6.55827137,3.63064365 L6.55827137,3.63064365 Z M16.4508603,13.441969 C16.4369696,12.8898917 16.1179056,12.3948237 15.437119,11.9509424 C12.6232334,10.1150284 9.77241482,8.33426977 6.99998688,6.43616457 C6.35275262,5.99306461 6.41823819,6.27748699 6.45669539,6.64678575 C6.56326261,7.67617928 7.20877959,8.17594092 8.05231645,8.71213882 C10.6478442,10.3617422 13.2199441,12.0491191 15.7722929,13.7650969 C16.2521679,14.0878047 16.4666295,14.0737273 16.4508603,13.441969 L16.4508603,13.441969 Z M18.3406501,17.2481264 C17.5750275,16.7849152 16.8750702,16.1979519 16.5175538,15.1705118 C16.4287674,14.9152294 16.2903711,14.6581311 15.8568269,14.4078242 C15.3587454,14.1202568 14.8760916,13.8067692 14.3837879,13.509595 C13.9186611,13.2290527 13.8173041,13.6197581 13.9448998,14.0666414 C14.4303745,15.7659037 15.7226067,17.0357943 17.2200319,18.1742445 C17.3944075,18.3069237 17.5896332,18.3137437 17.7965592,18.1496531 C18.0075637,17.982505 18.2198323,17.8139687 18.4069483,17.620086 C18.5515442,17.4706026 18.5030064,17.3463339 18.3406501,17.2481264 L18.3406501,17.2481264 Z M13.4886665,14.2988915 C13.3181452,13.8229894 13.2613616,13.353218 13.4547722,12.8968237 C11.736288,11.7458161 10.0029301,10.609753 8.24876342,9.4143769 C7.78044883,9.09528432 7.77627737,9.35972763 7.89150587,9.7086376 C8.25372099,10.8072683 9.25447287,11.7206175 10.6129225,12.5432758 C11.5735996,13.1249846 12.5300273,13.7136529 13.4886665,14.2988915 L13.4886665,14.2988915 Z M13.7172841,14.8020554 C13.8923367,15.1415001 14.1132403,15.4756489 14.3626463,15.7944856 C13.5524104,15.6669669 12.6932088,15.2612691 11.8098759,14.9402377 C11.1378818,14.696277 10.4216182,14.3342768 9.98090487,13.3599901 C9.78281408,12.9218235 9.97430025,12.8269446 10.3837737,13.0680606 C11.4618414,13.7036611 12.593231,14.2465046 13.7172841,14.8020554 L13.7172841,14.8020554 Z M14.5975172,16.2310159 C14.8040614,16.5091045 15.0242596,16.7635436 15.2583157,16.9939801 C14.8052892,16.9945705 14.3338151,16.9894518 13.740322,16.9040021 C13.1328011,16.816807 12.5469445,16.6319904 12.1113939,16.1543836 C11.8340666,15.8502534 11.7355807,15.5204226 12.3973104,15.6996275 C13.1379609,15.9003948 13.859932,16.1150859 14.5975172,16.2310159 L14.5975172,16.2310159 Z M15.5838198,17.384394 C15.7861941,17.5887735 16.0022527,17.7690503 16.2320674,17.9255011 C15.774261,17.9948687 15.2772949,18.0839849 14.7267981,18.0574803 C14.3877798,18.0412964 14.0760881,17.912876 13.7976053,17.7593888 C13.1813594,17.4200713 13.1285617,17.1938032 13.6318771,17.234719 C14.3263229,17.2911505 14.9620813,17.3791176 15.5838198,17.384394 L15.5838198,17.384394 Z" id="Fill-1412" transform="translate(13.310938, 9.544282) scale(-1, 1) translate(-13.310938, -9.544282) "></path>
                </g>
            </g>
            <g id="Group-2-+-Group-3-+-BROOKLYN-2-+-Group-3-+-Group-4" transform="translate(60.000000, 70.000000)">
                <text id="@" sketch:type="MSTextLayer" font-family="Josefin Sans" font-size="18" font-weight="bold" letter-spacing="12" fill="#000000">
                    <tspan x="14" y="34">@</tspan>
                </text>
                <text id="BKAIRSPACE" sketch:type="MSTextLayer" font-family="Josefin Sans" font-size="15" font-style="italic" font-weight="526" letter-spacing="11.5" fill="#000000">
                    <tspan x="48" y="36">B</tspan>
                    <tspan x="67.525" y="36" font-size="16" letter-spacing="10">K</tspan>
                    <tspan x="87.125" y="36" letter-spacing="12.6300001">A</tspan>
                    <tspan x="110.855" y="36" letter-spacing="14">I</tspan>
                    <tspan x="128.8" y="36">R</tspan>
                    <tspan x="147.98" y="36" letter-spacing="12.6300001">S</tspan>
                    <tspan x="168.965" y="36">P</tspan>
                    <tspan x="187.605" y="36" letter-spacing="8.5">A</tspan>
                    <tspan x="207.205" y="36" letter-spacing="10.75">C</tspan>
                    <tspan x="228.005" y="36" letter-spacing="12.6300001">E</tspan>
                </text>
                <g id="Group-3" transform="translate(19.071028, 2.531844)" fill="url(#linearGradient-1)" sketch:type="MSShapeGroup">
                    <path d="M14.0744607,21.7514177 C14.3426143,21.915082 14.6107678,22.0787463 14.8789214,22.2424106 C14.5315897,22.4852077 14.0963467,22.6499314 13.4684137,22.6664614 C13.1580901,22.6746182 12.8741875,22.5900587 12.5966504,22.4267005 C12.1196877,22.1458624 12.1473366,22.016911 12.6968954,21.9837503 C13.1671354,21.955528 13.626048,21.8702929 14.0744607,21.7514177 L14.0744607,21.7514177 Z M18.5486862,18.7938134 C18.6732822,18.6599547 18.5862984,18.5173743 18.3584765,18.4729981 C16.86204,18.1816636 16.3347968,16.8043198 16.7808756,15.2830832 C17.444356,13.0207382 16.5737303,11.4607525 14.1782012,9.69550382 C10.5151158,6.99575892 6.48248182,4.54185466 3.30369082,1.90161374 C3.00133953,1.65056125 2.70629608,1.79216132 2.68934294,2.33757557 C2.61408203,4.76911811 4.63651896,6.14360754 6.81587289,7.61883965 C8.82904233,8.98147425 10.8212818,10.2802512 12.7121491,11.6292517 C14.1499248,12.6547394 15.2139018,14.031324 14.6335187,15.861372 C14.1795417,17.2921926 14.4494684,18.8800089 16.4110146,19.9838895 C16.7117668,20.1531059 17.0397076,20.2136587 17.3613463,19.9529056 C17.790615,19.6049554 18.1718777,19.198849 18.5486862,18.7938134 L18.5486862,18.7938134 Z M3.02287191,5.64768962 C2.57091566,5.33549912 2.29827537,5.44892685 2.3730837,6.01037551 C2.43355493,6.46598301 2.58265741,6.74017007 2.73935169,7.1704192 C2.9074015,7.63194057 3.41773252,8.04235584 3.77397362,8.29486228 C7.17751936,10.7066117 10.4223066,12.6877008 13.7902507,14.8156038 C14.0396891,14.973146 14.475007,15.059009 14.3005502,14.4251986 C14.0681969,13.5802657 13.4406132,12.7917721 12.4198051,12.0744047 C9.31539309,9.89181706 6.14580817,7.80350784 3.02287191,5.64768962 L3.02287191,5.64768962 Z M13.9601627,16.495135 C13.9448051,15.884756 13.5920466,15.3374065 12.8393658,14.8466494 C9.72832119,12.8168546 6.57644337,10.8480398 3.51123456,8.74948617 C2.79564946,8.25959286 2.8680506,8.57405153 2.91056906,8.98234989 C3.02839025,10.120452 3.74207673,10.6729907 4.67469488,11.2658135 C7.54432198,13.0896225 10.3880472,14.955194 13.2099355,16.8523867 C13.7404875,17.209174 13.9775972,17.1936099 13.9601627,16.495135 L13.9601627,16.495135 Z M16.0495229,20.7032398 C15.203047,20.1911114 14.4291711,19.5421621 14.0338993,18.4062197 C13.9357367,18.1239784 13.7827252,17.8397294 13.3033967,17.5629889 C12.7527156,17.2450531 12.2190914,16.8984598 11.6747982,16.5699027 C11.160552,16.2597338 11.0484911,16.6916994 11.1895615,17.1857757 C11.7263045,19.0644877 13.1550023,20.4684845 14.8105623,21.7271601 C15.0033528,21.8738508 15.2191951,21.8813911 15.4479735,21.6999718 C15.681261,21.515172 15.9159461,21.3288376 16.1228224,21.11448 C16.2826883,20.9492105 16.2290247,20.8118184 16.0495229,20.7032398 L16.0495229,20.7032398 Z M10.685148,17.4425525 C10.4966188,16.9163929 10.4338386,16.3970116 10.6476742,15.89242 C8.74771043,14.6198608 6.83130214,13.3638244 4.89188753,12.0422111 C4.37411681,11.6894209 4.36950482,11.9817906 4.49690197,12.3675471 C4.89736864,13.5821981 6.00380442,14.5920011 7.50571243,15.5015358 C8.56784134,16.1446757 9.62527218,16.79551 10.685148,17.4425525 L10.685148,17.4425525 Z M10.9379086,17.9988527 C11.1314475,18.3741443 11.3756796,18.7435808 11.651424,19.096088 C10.7556235,18.9551027 9.80568633,18.5065614 8.82906947,18.1516277 C8.08610982,17.8819036 7.29420556,17.4816746 6.80695091,16.4044989 C6.58794084,15.9200598 6.79964881,15.8151613 7.2523645,16.0817402 C8.44428097,16.784463 9.69515045,17.3846333 10.9379086,17.9988527 L10.9379086,17.9988527 Z M11.9110983,19.5787179 C12.1394545,19.8861739 12.3829066,20.1674829 12.6416801,20.4222545 C12.1408119,20.4229073 11.619548,20.417248 10.9633794,20.3227744 C10.2917016,20.2263711 9.64397588,20.0220371 9.16242913,19.4939929 C8.85581481,19.1577452 8.74692835,18.7930827 9.47853973,18.9912124 C10.2974063,19.2131816 11.0956207,19.4505452 11.9110983,19.5787179 L11.9110983,19.5787179 Z M13.0015589,20.8538979 C13.2253048,21.0798608 13.4641802,21.2791756 13.7182643,21.4521483 C13.2121115,21.5288415 12.6626636,21.6273688 12.0540318,21.5980652 C11.6792117,21.5801721 11.3346039,21.4381899 11.0267121,21.2684938 C10.3453878,20.8933429 10.2870145,20.6431798 10.8434822,20.6884165 C11.6112646,20.7508075 12.314162,20.8480642 13.0015589,20.8538979 L13.0015589,20.8538979 Z" id="Fill-1412" transform="translate(10.488651, 12.185834) scale(-1, 1) rotate(-345.000000) translate(-10.488651, -12.185834) "></path>
                </g>
                <g id="Group-4" transform="translate(16.430552, 38.577146) scale(1, -1) rotate(-90.000000) translate(-16.430552, -38.577146) translate(6.141804, 22.415971)" fill="url(#linearGradient-1)" sketch:type="MSShapeGroup">
                    <path d="M16.5542408,18.196185 C16.796781,18.3442165 17.0393213,18.492248 17.2818615,18.6402795 C16.967706,18.8598853 16.5740363,19.008875 16.0060819,19.0238261 C15.7253996,19.0312038 15.4686146,18.9547212 15.2175871,18.8069666 C14.7861827,18.5529534 14.8111907,18.4363191 15.308257,18.4063258 C15.7335809,18.3807992 16.1486593,18.3037056 16.5542408,18.196185 L16.5542408,18.196185 Z M20.6010998,15.5210835 C20.7137947,15.4000106 20.6351194,15.2710491 20.4290585,15.2309117 C19.0755577,14.9674047 18.5986755,13.7216212 19.0021459,12.3456892 C19.6022524,10.2994376 18.8147866,8.88845767 16.6480723,7.29182104 C13.3348753,4.84994883 9.68742823,2.6304352 6.81226717,0.2423833 C6.53879571,0.0153106982 6.27193405,0.143385489 6.25660023,0.636703181 C6.18852804,2.83599103 8.017787,4.07919276 9.98897465,5.4135145 C11.8098513,6.64599374 13.6117972,7.82071483 15.3220537,9.04086234 C16.6224968,9.96839804 17.5848454,11.2134948 17.059899,12.8687413 C16.6492848,14.1628936 16.8934287,15.5990458 18.6676131,16.5974866 C18.9396382,16.7505399 19.236255,16.8053088 19.5271716,16.5694622 C19.9154376,16.2547473 20.2602831,15.8874312 20.6010998,15.5210835 L20.6010998,15.5210835 Z M6.55827137,3.63064365 C6.14948481,3.34827278 5.90288643,3.45086618 5.97054925,3.95868672 C6.02524442,4.37077576 6.16010503,4.61877318 6.30183227,5.00792601 C6.4538304,5.42536405 6.91541591,5.79657751 7.23762977,6.02496518 C10.3160776,8.20635052 13.2509311,9.99821102 16.2971778,11.9228623 C16.5227905,12.0653564 16.916528,12.143018 16.7587349,11.5697475 C16.5485754,10.8055205 15.9809368,10.0923417 15.0576336,9.44349545 C12.2497471,7.46938295 9.38291279,5.58054365 6.55827137,3.63064365 L6.55827137,3.63064365 Z M16.4508603,13.441969 C16.4369696,12.8898917 16.1179056,12.3948237 15.437119,11.9509424 C12.6232334,10.1150284 9.77241482,8.33426977 6.99998688,6.43616457 C6.35275262,5.99306461 6.41823819,6.27748699 6.45669539,6.64678575 C6.56326261,7.67617928 7.20877959,8.17594092 8.05231645,8.71213882 C10.6478442,10.3617422 13.2199441,12.0491191 15.7722929,13.7650969 C16.2521679,14.0878047 16.4666295,14.0737273 16.4508603,13.441969 L16.4508603,13.441969 Z M18.3406501,17.2481264 C17.5750275,16.7849152 16.8750702,16.1979519 16.5175538,15.1705118 C16.4287674,14.9152294 16.2903711,14.6581311 15.8568269,14.4078242 C15.3587454,14.1202568 14.8760916,13.8067692 14.3837879,13.509595 C13.9186611,13.2290527 13.8173041,13.6197581 13.9448998,14.0666414 C14.4303745,15.7659037 15.7226067,17.0357943 17.2200319,18.1742445 C17.3944075,18.3069237 17.5896332,18.3137437 17.7965592,18.1496531 C18.0075637,17.982505 18.2198323,17.8139687 18.4069483,17.620086 C18.5515442,17.4706026 18.5030064,17.3463339 18.3406501,17.2481264 L18.3406501,17.2481264 Z M13.4886665,14.2988915 C13.3181452,13.8229894 13.2613616,13.353218 13.4547722,12.8968237 C11.736288,11.7458161 10.0029301,10.609753 8.24876342,9.4143769 C7.78044883,9.09528432 7.77627737,9.35972763 7.89150587,9.7086376 C8.25372099,10.8072683 9.25447287,11.7206175 10.6129225,12.5432758 C11.5735996,13.1249846 12.5300273,13.7136529 13.4886665,14.2988915 L13.4886665,14.2988915 Z M13.7172841,14.8020554 C13.8923367,15.1415001 14.1132403,15.4756489 14.3626463,15.7944856 C13.5524104,15.6669669 12.6932088,15.2612691 11.8098759,14.9402377 C11.1378818,14.696277 10.4216182,14.3342768 9.98090487,13.3599901 C9.78281408,12.9218235 9.97430025,12.8269446 10.3837737,13.0680606 C11.4618414,13.7036611 12.593231,14.2465046 13.7172841,14.8020554 L13.7172841,14.8020554 Z M14.5975172,16.2310159 C14.8040614,16.5091045 15.0242596,16.7635436 15.2583157,16.9939801 C14.8052892,16.9945705 14.3338151,16.9894518 13.740322,16.9040021 C13.1328011,16.816807 12.5469445,16.6319904 12.1113939,16.1543836 C11.8340666,15.8502534 11.7355807,15.5204226 12.3973104,15.6996275 C13.1379609,15.9003948 13.859932,16.1150859 14.5975172,16.2310159 L14.5975172,16.2310159 Z M15.5838198,17.384394 C15.7861941,17.5887735 16.0022527,17.7690503 16.2320674,17.9255011 C15.774261,17.9948687 15.2772949,18.0839849 14.7267981,18.0574803 C14.3877798,18.0412964 14.0760881,17.912876 13.7976053,17.7593888 C13.1813594,17.4200713 13.1285617,17.1938032 13.6318771,17.234719 C14.3263229,17.2911505 14.9620813,17.3791176 15.5838198,17.384394 L15.5838198,17.384394 Z" id="Fill-1412" transform="translate(13.310938, 9.544282) scale(-1, 1) translate(-13.310938, -9.544282) "></path>
                </g>
            </g>
            <g id="Abilites" transform="translate(196.000000, 275.000000)" font-weight="bold" font-family="Josefin Sans" line-spacing="70" sketch:type="MSTextLayer" font-size="24" fill="#000000">
                <text id="CONDITIONING" letter-spacing="22.5499992">
                    <tspan x="478" y="504">C</tspan>
                    <tspan x="516.629999" y="504" letter-spacing="20">O</tspan>
                    <tspan x="556.789999" y="504">N</tspan>
                    <tspan x="598.851998" y="504" letter-spacing="28.5">D</tspan>
                    <tspan x="642.999998" y="504" letter-spacing="29.6499996">I</tspan>
                    <tspan x="679.321998" y="504" letter-spacing="30.5499992">T</tspan>
                    <tspan x="723.143997" y="504" letter-spacing="27">I</tspan>
                    <tspan x="756.815997" y="504" letter-spacing="19.75">O</tspan>
                    <tspan x="796.725997" y="504" letter-spacing="26.8500004">N</tspan>
                    <tspan x="843.087998" y="504" letter-spacing="27.5499992">I</tspan>
                    <tspan x="877.309997" y="504" letter-spacing="21.5">N</tspan>
                    <tspan x="918.321997" y="504">G</tspan>
                </text>
                <g id="Aerial-&amp;-Circus" transform="translate(96.000000, 0.000000)">
                    <text id="-CIRCUS-" letter-spacing="7.2">
                        <tspan x="482" y="23"> </tspan>
                        <tspan x="496.4" y="23" letter-spacing="28.5">CIRCUS</tspan>
                        <tspan x="747.848" y="23" letter-spacing="8.89999962"> </tspan>
                    </text>
                    <text id="AERIAL" letter-spacing="25">
                        <tspan x="0" y="23">AERIAL</tspan>
                    </text>
                </g>
                <g id="CONDITIONING-+-FLEXIBILITY-2" transform="translate(0.000000, 401.000000)" letter-spacing="25">
                    <text id="FLEXIBILITY">
                        <tspan x="0" y="202">F</tspan>
                        <tspan x="39.088" y="202" letter-spacing="24.75">L</tspan>
                        <tspan x="78.07" y="202" letter-spacing="23.5">E</tspan>
                        <tspan x="115.994" y="202" letter-spacing="29">X</tspan>
                        <tspan x="161.794" y="202" letter-spacing="31">I</tspan>
                        <tspan x="199.466" y="202" letter-spacing="30">BI</tspan>
                        <tspan x="278.978" y="202" letter-spacing="28.5">L</tspan>
                        <tspan x="321.71" y="202" letter-spacing="30">I</tspan>
                        <tspan x="358.382" y="202" letter-spacing="25.5">T</tspan>
                        <tspan x="397.154" y="202">Y</tspan>
                    </text>
                </g>
                <g id="PILATES-+-GYROKINESIS" transform="translate(578.000000, 580.000000)">
                    <text id="PILATES" letter-spacing="30.5499992">
                        <tspan x="0" y="23">PI</tspan>
                        <tspan x="79.5079985" y="23" letter-spacing="23.5">L</tspan>
                        <tspan x="117.239998" y="23" letter-spacing="24.5">A</tspan>
                        <tspan x="159.499998" y="23" letter-spacing="26.5499992">T</tspan>
                        <tspan x="199.321998" y="23" letter-spacing="26">E</tspan>
                        <tspan x="239.745998" y="23">S</tspan>
                    </text>
                    <text id="GYROKINESIS-®" letter-spacing="24.25">
                        <tspan x="396" y="23">G</tspan>
                        <tspan x="436.858" y="23" letter-spacing="26.5499992">Y</tspan>
                        <tspan x="478.719999" y="23" letter-spacing="23.25">R</tspan>
                        <tspan x="514.425999" y="23" letter-spacing="22.75">O</tspan>
                        <tspan x="557.335999" y="23" letter-spacing="29.4500008">K</tspan>
                        <tspan x="601.186" y="23" letter-spacing="27.0499992">I</tspan>
                        <tspan x="634.907999" y="23" letter-spacing="23.0499992">N</tspan>
                        <tspan x="677.469998" y="23" letter-spacing="26">E</tspan>
                        <tspan x="717.893998" y="23" letter-spacing="29.5">S</tspan>
                        <tspan x="760.905998" y="23" letter-spacing="30.5">I</tspan>
                        <tspan x="798.077998" y="23" letter-spacing="8">S </tspan>
                        <tspan x="834.789998" y="23">®</tspan>
                    </text>
                </g>
                <g id="-&amp;-+-BALLET-+---CONTEMPORARY-DANCE" transform="translate(996.000000, 0.000000)" letter-spacing="23.1499996">
                    <text id="DANCE">
                        <tspan x="122" y="23">DANC</tspan>
                        <tspan x="283.599998" y="23">E</tspan>
                    </text>
                </g>
            </g>
            <text id="AIRSPACE" fill="white" filter="url(#filter-2)" sketch:type="MSTextLayer" font-family="Josefin Sans" font-size="144" font-weight="normal" letter-spacing="130">
                <tspan x="147" y="648" fill="#000000">A</tspan>
                <tspan x="383.56" y="648" letter-spacing="150" fill="#000000">I</tspan>
                <tspan x="569.272" y="648" letter-spacing="121" fill="#000000">R</tspan>
                <tspan x="762.992" y="648" letter-spacing="123" fill="#000000">S</tspan>
                <tspan x="965.48" y="648" letter-spacing="115" fill="#000000">P</tspan>
                <tspan x="1147.296" y="648" letter-spacing="99" fill="#000000">A</tspan>
                <tspan x="1352.856" y="648" letter-spacing="109" fill="#000000">C</tspan>
                <tspan x="1558.336" y="648" fill="#000000">E</tspan>
            </text>
            <g id="ALL--LEVELS-+-CLASSES-FOR" transform="translate(484.000000, 150.000000)" font-weight="260" font-family="Josefin Sans" fill="#000000" font-size="48" sketch:type="MSTextLayer">
                <text id="ALL--LEVELS" letter-spacing="9.86553192">
                    <tspan x="459" y="48">ALL </tspan>
                    <tspan x="605.310128" y="48" letter-spacing="3.86999989"> </tspan>
                    <tspan x="623.580128" y="48">LEVELS</tspan>
                </text>
                <text id="CLASSES-FOR" line-spacing="60" letter-spacing="13.1000004">
                    <tspan x="0" y="46">C</tspan>
                    <tspan x="45.2600004" y="46" letter-spacing="7.19999981">L</tspan>
                    <tspan x="80.9240002" y="46" letter-spacing="9.10000038">A</tspan>
                    <tspan x="125.544001" y="46" letter-spacing="12.5">S</tspan>
                    <tspan x="164.348001" y="46" letter-spacing="14.1999998">S</tspan>
                    <tspan x="204.852" y="46" letter-spacing="11.3000002">E</tspan>
                    <tspan x="245.000001" y="46" letter-spacing="12.5">S</tspan>
                    <tspan x="283.804001" y="46" letter-spacing="7.4000001"> </tspan>
                    <tspan x="305.604001" y="46" letter-spacing="3.79999995">F</tspan>
                    <tspan x="337.580001" y="46" letter-spacing="9">O</tspan>
                    <tspan x="386.900001" y="46">R</tspan>
                </text>
            </g>
            <text id="AT-IMMERSIVE-GALLERY" sketch:type="MSTextLayer" font-family="Josefin Sans" font-size="19" font-weight="bold" letter-spacing="2.10000014" fill="#000000">
                <tspan x="603" y="1038">AT IMMERSIVE GALLERY, 132 BEDFORD AVE. BROOKLY</tspan>
                <tspan x="1183.60601" y="1038">N</tspan>
            </text>
        </g>
    </g>
</svg>